{"glyphs":{"0":{"ha":953,"x_min":0,"x_max":0,"o":"m 476 -14 b 842 486 701 -14 842 186 b 476 986 842 788 701 986 b 111 486 251 986 111 788 b 476 -14 111 186 251 -14 z m 476 64 b 197 486 300 64 197 232 b 476 908 197 740 300 908 b 756 486 653 908 756 740 b 476 64 756 232 653 64 z "},"1":{"ha":722,"x_min":0,"x_max":0,"o":"m 97 0 l 667 0 l 667 78 l 431 78 l 431 972 l 358 972 b 132 856 329 900 260 861 l 132 778 b 347 842 229 779 301 801 l 347 78 l 97 78 z "},"2":{"ha":824,"x_min":0,"x_max":0,"o":"m 124 0 l 761 0 l 761 81 l 235 81 l 539 417 b 706 732 664 554 706 639 b 419 986 706 883 589 986 b 111 694 250 986 125 868 l 192 694 b 419 908 203 825 290 908 b 619 729 540 908 619 839 b 483 471 619 656 594 594 l 124 71 z "},"3":{"ha":839,"x_min":0,"x_max":0,"o":"m 417 -14 b 749 264 640 -14 749 122 b 564 501 749 365 692 457 b 708 715 661 546 708 628 b 413 986 708 854 613 986 b 107 694 244 986 122 872 l 188 694 b 413 908 199 826 288 908 b 622 707 560 908 622 819 b 431 531 622 601 571 531 l 340 531 l 340 453 l 439 453 b 663 264 606 453 663 376 b 417 64 663 153 588 64 b 160 265 275 64 176 140 l 76 265 b 417 -14 97 93 228 -14 z "},"4":{"ha":851,"x_min":0,"x_max":0,"o":"m 810 314 l 624 314 l 624 972 l 510 972 l 56 307 l 56 239 l 540 239 l 540 0 l 624 0 l 624 239 l 810 239 z m 153 314 l 540 892 l 540 314 z "},"5":{"ha":863,"x_min":0,"x_max":0,"o":"m 457 618 b 218 519 367 618 289 592 l 268 894 l 713 894 l 713 972 l 197 972 l 131 433 l 206 410 b 443 538 267 503 335 538 b 679 299 590 538 679 454 b 438 64 679 150 583 64 b 188 265 303 64 204 140 l 104 265 b 439 -14 125 93 257 -14 b 765 301 626 -14 765 113 b 457 618 765 489 636 618 z "},"6":{"ha":868,"x_min":0,"x_max":0,"o":"m 460 -14 b 771 297 638 -14 771 119 b 463 607 771 475 640 607 b 175 383 324 607 215 524 b 171 472 172 414 171 443 b 456 908 171 738 282 908 b 681 697 575 908 663 826 l 761 697 b 456 986 738 879 625 986 b 90 483 235 986 90 788 b 460 -14 90 175 228 -14 z m 460 64 b 222 297 315 64 222 156 b 463 526 222 435 318 526 b 686 297 596 526 686 435 b 460 64 686 158 594 64 z "},"7":{"ha":764,"x_min":0,"x_max":0,"o":"m 268 0 l 354 0 b 715 900 351 381 499 671 l 715 972 l 56 972 l 56 894 l 614 894 b 268 0 407 667 268 383 z "},"8":{"ha":836,"x_min":0,"x_max":0,"o":"m 418 -14 b 746 257 618 -14 746 96 b 549 500 746 372 674 468 b 710 722 654 536 710 618 b 418 986 710 874 590 986 b 126 722 246 986 126 874 b 288 500 126 618 182 536 b 90 257 163 468 90 372 b 418 -14 90 96 218 -14 z m 418 533 b 210 721 294 533 210 611 b 418 908 210 833 290 908 b 626 721 546 908 626 833 b 418 533 626 611 542 533 z m 418 64 b 174 257 265 64 174 143 b 418 458 174 388 258 458 b 663 257 578 458 663 388 b 418 64 663 143 571 64 z "},"9":{"ha":850,"x_min":0,"x_max":0,"o":"m 413 -14 b 760 489 621 -14 760 144 b 408 986 760 797 625 986 b 97 675 233 986 97 853 b 406 365 97 497 228 365 b 675 583 531 365 635 449 b 413 64 699 264 628 64 b 181 275 286 64 199 143 l 100 275 b 413 -14 124 97 236 -14 z m 406 446 b 182 675 272 446 182 538 b 408 908 182 814 276 908 b 628 675 539 908 628 817 b 406 446 628 538 535 446 z "},"$":{"ha":1389,"x_min":0,"x_max":0,"o":"m 292 0 l 375 0 l 694 474 l 1014 0 l 1097 0 l 1057 486 l 1097 972 l 1014 972 l 694 476 l 375 972 l 292 972 l 332 486 z m 375 153 l 335 486 l 375 799 l 693 475 z m 1014 153 l 696 475 l 1014 799 l 1054 486 z "},"+":{"ha":1389,"x_min":0,"x_max":0,"o":"m 292 0 l 375 0 l 694 474 l 1014 0 l 1097 0 l 1057 486 l 1097 972 l 1014 972 l 694 476 l 375 972 l 292 972 l 332 486 z m 375 153 l 335 486 l 375 799 l 693 475 z m 1014 153 l 696 475 l 1014 799 l 1054 486 z "},"<":{"ha":1389,"x_min":0,"x_max":0,"o":"m 292 0 l 375 0 l 694 474 l 1014 0 l 1097 0 l 1057 486 l 1097 972 l 1014 972 l 694 476 l 375 972 l 292 972 l 332 486 z m 375 153 l 335 486 l 375 799 l 693 475 z m 1014 153 l 696 475 l 1014 799 l 1054 486 z "},"=":{"ha":1389,"x_min":0,"x_max":0,"o":"m 292 0 l 375 0 l 694 474 l 1014 0 l 1097 0 l 1057 486 l 1097 972 l 1014 972 l 694 476 l 375 972 l 292 972 l 332 486 z m 375 153 l 335 486 l 375 799 l 693 475 z m 1014 153 l 696 475 l 1014 799 l 1054 486 z "},">":{"ha":1389,"x_min":0,"x_max":0,"o":"m 292 0 l 375 0 l 694 474 l 1014 0 l 1097 0 l 1057 486 l 1097 972 l 1014 972 l 694 476 l 375 972 l 292 972 l 332 486 z m 375 153 l 335 486 l 375 799 l 693 475 z m 1014 153 l 696 475 l 1014 799 l 1054 486 z "},"^":{"ha":1389,"x_min":0,"x_max":0,"o":"m 292 0 l 375 0 l 694 474 l 1014 0 l 1097 0 l 1057 486 l 1097 972 l 1014 972 l 694 476 l 375 972 l 292 972 l 332 486 z m 375 153 l 335 486 l 375 799 l 693 475 z m 1014 153 l 696 475 l 1014 799 l 1054 486 z "},"×":{"ha":1389,"x_min":0,"x_max":0,"o":"m 292 0 l 375 0 l 694 474 l 1014 0 l 1097 0 l 1057 486 l 1097 972 l 1014 972 l 694 476 l 375 972 l 292 972 l 332 486 z m 375 153 l 335 486 l 375 799 l 693 475 z m 1014 153 l 696 475 l 1014 799 l 1054 486 z "},"ß":{"ha":1389,"x_min":0,"x_max":0,"o":"m 292 0 l 375 0 l 694 474 l 1014 0 l 1097 0 l 1057 486 l 1097 972 l 1014 972 l 694 476 l 375 972 l 292 972 l 332 486 z m 375 153 l 335 486 l 375 799 l 693 475 z m 1014 153 l 696 475 l 1014 799 l 1054 486 z "},"÷":{"ha":1389,"x_min":0,"x_max":0,"o":"m 292 0 l 375 0 l 694 474 l 1014 0 l 1097 0 l 1057 486 l 1097 972 l 1014 972 l 694 476 l 375 972 l 292 972 l 332 486 z m 375 153 l 335 486 l 375 799 l 693 475 z m 1014 153 l 696 475 l 1014 799 l 1054 486 z "},"Ď":{"ha":1389,"x_min":0,"x_max":0,"o":"m 292 0 l 375 0 l 694 474 l 1014 0 l 1097 0 l 1057 486 l 1097 972 l 1014 972 l 694 476 l 375 972 l 292 972 l 332 486 z m 375 153 l 335 486 l 375 799 l 693 475 z m 1014 153 l 696 475 l 1014 799 l 1054 486 z "},"ď":{"ha":1389,"x_min":0,"x_max":0,"o":"m 292 0 l 375 0 l 694 474 l 1014 0 l 1097 0 l 1057 486 l 1097 972 l 1014 972 l 694 476 l 375 972 l 292 972 l 332 486 z m 375 153 l 335 486 l 375 799 l 693 475 z m 1014 153 l 696 475 l 1014 799 l 1054 486 z "},"―":{"ha":1389,"x_min":0,"x_max":0,"o":"m 292 0 l 375 0 l 694 474 l 1014 0 l 1097 0 l 1057 486 l 1097 972 l 1014 972 l 694 476 l 375 972 l 292 972 l 332 486 z m 375 153 l 335 486 l 375 799 l 693 475 z m 1014 153 l 696 475 l 1014 799 l 1054 486 z "},"‖":{"ha":1389,"x_min":0,"x_max":0,"o":"m 292 0 l 375 0 l 694 474 l 1014 0 l 1097 0 l 1057 486 l 1097 972 l 1014 972 l 694 476 l 375 972 l 292 972 l 332 486 z m 375 153 l 335 486 l 375 799 l 693 475 z m 1014 153 l 696 475 l 1014 799 l 1054 486 z "},"‗":{"ha":1389,"x_min":0,"x_max":0,"o":"m 292 0 l 375 0 l 694 474 l 1014 0 l 1097 0 l 1057 486 l 1097 972 l 1014 972 l 694 476 l 375 972 l 292 972 l 332 486 z m 375 153 l 335 486 l 375 799 l 693 475 z m 1014 153 l 696 475 l 1014 799 l 1054 486 z "},"‛":{"ha":1389,"x_min":0,"x_max":0,"o":"m 292 0 l 375 0 l 694 474 l 1014 0 l 1097 0 l 1057 486 l 1097 972 l 1014 972 l 694 476 l 375 972 l 292 972 l 332 486 z m 375 153 l 335 486 l 375 799 l 693 475 z m 1014 153 l 696 475 l 1014 799 l 1054 486 z "},"\u0000":{"ha":0,"x_min":0,"x_max":0,"o":""},"\r":{"ha":347,"x_min":0,"x_max":0,"o":""}," ":{"ha":431,"x_min":0,"x_max":0,"o":""},"A":{"ha":954,"x_min":0,"x_max":0,"o":"m 807 0 l 899 0 l 514 972 l 442 972 l 56 0 l 144 0 l 268 321 l 682 321 z m 299 399 l 475 857 l 653 399 z "},"Á":{"ha":954,"x_min":0,"x_max":0,"o":"m 711 1133 l 678 1218 l 349 1067 l 368 1021 z m 807 0 l 899 0 l 514 972 l 442 972 l 56 0 l 144 0 l 268 321 l 682 321 z m 299 399 l 475 857 l 653 399 z "},"Â":{"ha":954,"x_min":0,"x_max":0,"o":"m 476 1128 l 700 1021 l 724 1057 l 476 1218 l 229 1057 l 253 1021 z m 807 0 l 899 0 l 514 972 l 442 972 l 56 0 l 144 0 l 268 321 l 682 321 z m 299 399 l 475 857 l 653 399 z "},"Ä":{"ha":954,"x_min":0,"x_max":0,"o":"m 338 1039 b 408 1110 376 1039 408 1071 b 338 1181 408 1149 376 1181 b 267 1110 299 1181 267 1149 b 338 1039 267 1071 299 1039 z m 615 1039 b 686 1110 654 1039 686 1071 b 615 1181 686 1149 654 1181 b 544 1110 576 1181 544 1149 b 615 1039 544 1071 576 1039 z m 807 0 l 899 0 l 514 972 l 442 972 l 56 0 l 144 0 l 268 321 l 682 321 z m 299 399 l 475 857 l 653 399 z "},"À":{"ha":954,"x_min":0,"x_max":0,"o":"m 601 1067 l 272 1218 l 239 1133 l 582 1021 z m 807 0 l 899 0 l 514 972 l 442 972 l 56 0 l 144 0 l 268 321 l 682 321 z m 299 399 l 475 857 l 653 399 z "},"Å":{"ha":954,"x_min":0,"x_max":0,"o":"m 476 988 b 614 1126 553 988 614 1050 b 476 1264 614 1203 553 1264 b 338 1126 399 1264 338 1203 b 476 988 338 1050 399 988 z m 476 1203 b 550 1126 517 1203 550 1174 b 476 1049 550 1078 517 1049 b 401 1126 435 1049 401 1078 b 476 1203 401 1174 435 1203 z m 807 0 l 899 0 l 514 972 l 442 972 l 56 0 l 144 0 l 268 321 l 682 321 z m 299 399 l 475 857 l 653 399 z "},"Ã":{"ha":954,"x_min":0,"x_max":0,"o":"m 326 1057 b 386 1146 326 1118 346 1146 b 454 1106 418 1146 433 1125 b 567 1038 497 1065 518 1038 b 693 1188 643 1038 696 1100 l 632 1188 b 572 1099 632 1126 613 1099 b 504 1139 540 1099 525 1119 b 392 1207 461 1179 440 1207 b 265 1057 315 1207 263 1144 z m 807 0 l 899 0 l 514 972 l 442 972 l 56 0 l 144 0 l 268 321 l 682 321 z m 299 399 l 475 857 l 653 399 z "},"Æ":{"ha":1354,"x_min":0,"x_max":0,"o":"m 782 78 l 782 456 l 1179 456 l 1179 533 l 782 533 l 782 894 l 1235 894 l 1235 972 l 660 972 l 42 0 l 139 0 l 375 378 l 699 378 l 699 0 l 1257 0 l 1257 78 z m 424 456 l 699 897 l 699 456 z "},"B":{"ha":863,"x_min":0,"x_max":0,"o":"m 139 0 l 475 0 b 779 267 681 0 779 129 b 617 503 779 365 729 453 b 733 708 699 544 733 624 b 458 972 733 846 646 972 l 139 972 z m 222 529 l 222 894 l 472 894 b 647 707 596 894 647 811 b 479 529 647 600 596 529 z m 222 78 l 222 451 l 492 451 b 693 264 631 451 693 375 b 485 78 693 161 631 78 z "},"C":{"ha":999,"x_min":0,"x_max":0,"o":"m 518 -14 b 876 279 701 -14 844 90 l 792 279 b 518 64 765 139 656 64 b 183 486 307 64 183 218 b 515 908 183 754 306 908 b 796 667 658 908 772 825 l 881 667 b 515 986 853 879 706 986 b 97 486 257 986 97 801 b 518 -14 97 172 258 -14 z "},"Ć":{"ha":999,"x_min":0,"x_max":0,"o":"m 392 1021 l 735 1133 l 701 1218 l 372 1067 z m 518 -14 b 876 279 701 -14 844 90 l 792 279 b 518 64 765 139 656 64 b 183 486 307 64 183 218 b 515 908 183 754 306 908 b 796 667 658 908 772 825 l 881 667 b 515 986 853 879 706 986 b 97 486 257 986 97 801 b 518 -14 97 172 258 -14 z "},"Č":{"ha":999,"x_min":0,"x_max":0,"o":"m 276 1225 l 253 1189 l 500 1028 l 747 1189 l 724 1225 l 500 1118 z m 518 -14 b 876 279 701 -14 844 90 l 792 279 b 518 64 765 139 656 64 b 183 486 307 64 183 218 b 515 908 183 754 306 908 b 796 667 658 908 772 825 l 881 667 b 515 986 853 879 706 986 b 97 486 257 986 97 801 b 518 -14 97 172 258 -14 z "},"Ç":{"ha":999,"x_min":0,"x_max":0,"o":"m 518 64 b 183 486 307 64 183 218 b 515 908 183 754 306 908 b 796 667 658 908 772 825 l 881 667 b 515 986 853 879 706 986 b 97 486 257 986 97 801 b 474 -12 97 190 240 8 l 418 -81 l 449 -124 b 508 -115 469 -118 489 -115 b 579 -169 561 -115 579 -144 b 493 -233 579 -194 563 -233 b 418 -222 474 -233 449 -231 l 419 -278 b 501 -290 451 -286 481 -290 b 643 -169 610 -290 643 -218 b 503 -58 643 -114 603 -54 l 539 -14 b 876 279 713 -6 846 97 l 792 279 b 518 64 765 139 656 64 z "},"D":{"ha":986,"x_min":0,"x_max":0,"o":"m 139 0 l 428 0 b 889 481 715 0 889 182 b 428 972 889 790 717 972 l 139 972 z m 222 78 l 222 894 l 428 894 b 803 481 665 894 803 744 b 428 78 803 215 669 78 z "},"Ð":{"ha":986,"x_min":0,"x_max":0,"o":"m 428 972 l 139 972 l 139 522 l 42 522 l 42 450 l 139 450 l 139 0 l 428 0 b 889 481 715 0 889 182 b 428 972 889 790 717 972 z m 428 78 l 222 78 l 222 450 l 389 450 l 389 522 l 222 522 l 222 894 l 428 894 b 803 481 665 894 803 744 b 428 78 803 215 669 78 z "},"Đ":{"ha":986,"x_min":0,"x_max":0,"o":"m 428 972 l 139 972 l 139 522 l 42 522 l 42 450 l 139 450 l 139 0 l 428 0 b 889 481 715 0 889 182 b 428 972 889 790 717 972 z m 428 78 l 222 78 l 222 450 l 389 450 l 389 522 l 222 522 l 222 894 l 428 894 b 803 481 665 894 803 744 b 428 78 803 215 669 78 z "},"E":{"ha":828,"x_min":0,"x_max":0,"o":"m 139 0 l 731 0 l 731 78 l 222 78 l 222 456 l 667 456 l 667 533 l 222 533 l 222 894 l 722 894 l 722 972 l 139 972 z "},"É":{"ha":828,"x_min":0,"x_max":0,"o":"m 313 1021 l 656 1133 l 622 1218 l 293 1067 z m 139 0 l 731 0 l 731 78 l 222 78 l 222 456 l 667 456 l 667 533 l 222 533 l 222 894 l 722 894 l 722 972 l 139 972 z "},"Ê":{"ha":828,"x_min":0,"x_max":0,"o":"m 197 1021 l 421 1128 l 644 1021 l 668 1057 l 421 1218 l 174 1057 z m 139 0 l 731 0 l 731 78 l 222 78 l 222 456 l 667 456 l 667 533 l 222 533 l 222 894 l 722 894 l 722 972 l 139 972 z "},"Ë":{"ha":828,"x_min":0,"x_max":0,"o":"m 282 1039 b 353 1110 321 1039 353 1071 b 282 1181 353 1149 321 1181 b 211 1110 243 1181 211 1149 b 282 1039 211 1071 243 1039 z m 560 1039 b 631 1110 599 1039 631 1071 b 560 1181 631 1149 599 1181 b 489 1110 521 1181 489 1149 b 560 1039 489 1071 521 1039 z m 139 0 l 731 0 l 731 78 l 222 78 l 222 456 l 667 456 l 667 533 l 222 533 l 222 894 l 722 894 l 722 972 l 139 972 z "},"È":{"ha":828,"x_min":0,"x_max":0,"o":"m 526 1021 l 546 1067 l 217 1218 l 183 1133 z m 139 0 l 731 0 l 731 78 l 222 78 l 222 456 l 667 456 l 667 533 l 222 533 l 222 894 l 722 894 l 722 972 l 139 972 z "},"F":{"ha":764,"x_min":0,"x_max":0,"o":"m 139 0 l 222 0 l 222 446 l 625 446 l 625 524 l 222 524 l 222 894 l 681 894 l 681 972 l 139 972 z "},"G":{"ha":1013,"x_min":0,"x_max":0,"o":"m 533 -14 b 871 99 682 -14 788 36 l 871 506 l 443 506 l 443 428 l 788 428 l 788 138 b 540 67 711 89 638 67 b 183 486 311 67 183 218 b 515 908 183 754 306 908 b 796 681 658 908 772 829 l 881 681 b 515 986 853 883 706 986 b 97 486 257 986 97 801 b 533 -14 97 172 263 -14 z "},"H":{"ha":972,"x_min":0,"x_max":0,"o":"m 139 0 l 222 0 l 222 450 l 750 450 l 750 0 l 833 0 l 833 972 l 750 972 l 750 528 l 222 528 l 222 972 l 139 972 z "},"I":{"ha":361,"x_min":0,"x_max":0,"o":"m 139 0 l 222 0 l 222 972 l 139 972 z "},"Í":{"ha":361,"x_min":0,"x_max":0,"o":"m 72 1021 l 415 1133 l 382 1218 l 53 1067 z m 139 0 l 222 0 l 222 972 l 139 972 z "},"Î":{"ha":361,"x_min":0,"x_max":0,"o":"m -1 1021 l 181 1128 l 363 1021 l 386 1051 l 181 1218 l -25 1051 z m 139 0 l 222 0 l 222 972 l 139 972 z "},"Ï":{"ha":361,"x_min":0,"x_max":0,"o":"m 69 1039 b 140 1110 108 1039 140 1071 b 69 1181 140 1149 108 1181 b -1 1110 31 1181 -1 1149 b 69 1039 -1 1071 31 1039 z m 292 1039 b 363 1110 331 1039 363 1071 b 292 1181 363 1149 331 1181 b 221 1110 253 1181 221 1149 b 292 1039 221 1071 253 1039 z m 139 0 l 222 0 l 222 972 l 139 972 z "},"Ì":{"ha":361,"x_min":0,"x_max":0,"o":"m 286 1021 l 306 1067 l -24 1218 l -57 1133 z m 139 0 l 222 0 l 222 972 l 139 972 z "},"J":{"ha":756,"x_min":0,"x_max":0,"o":"m 354 -14 b 644 292 538 -14 644 113 l 644 972 l 561 972 l 561 299 b 354 64 561 149 488 64 b 154 257 247 64 161 128 l 69 257 b 354 -14 82 78 201 -14 z "},"K":{"ha":906,"x_min":0,"x_max":0,"o":"m 728 0 l 836 0 l 389 568 l 814 972 l 700 972 l 222 510 l 222 972 l 139 972 l 139 0 l 222 0 l 222 408 l 328 510 z "},"L":{"ha":772,"x_min":0,"x_max":0,"o":"m 139 0 l 689 0 l 689 78 l 222 78 l 222 972 l 139 972 z "},"M":{"ha":1206,"x_min":0,"x_max":0,"o":"m 153 0 l 236 0 l 236 774 l 564 139 l 642 139 l 969 774 l 969 0 l 1053 0 l 1053 972 l 972 972 l 603 235 l 233 972 l 153 972 z "},"N":{"ha":1014,"x_min":0,"x_max":0,"o":"m 146 0 l 229 0 l 229 824 l 790 0 l 868 0 l 868 972 l 785 972 l 785 154 l 229 972 l 146 972 z "},"Ŋ":{"ha":1014,"x_min":0,"x_max":0,"o":"m 785 972 l 785 196 l 229 972 l 146 972 l 146 0 l 229 0 l 229 824 l 785 50 b 619 -144 785 -75 722 -144 l 619 -222 b 868 63 776 -222 868 -107 l 868 972 z "},"Ñ":{"ha":1014,"x_min":0,"x_max":0,"o":"m 597 1038 b 724 1188 674 1038 726 1100 l 663 1188 b 603 1099 663 1126 643 1099 b 535 1139 571 1099 556 1119 b 422 1207 492 1179 471 1207 b 296 1057 346 1207 293 1144 l 357 1057 b 417 1146 357 1118 376 1146 b 485 1106 449 1146 464 1125 b 597 1038 528 1065 549 1038 z m 146 0 l 229 0 l 229 824 l 790 0 l 868 0 l 868 972 l 785 972 l 785 154 l 229 972 l 146 972 z "},"O":{"ha":1008,"x_min":0,"x_max":0,"o":"m 504 -14 b 911 486 756 -14 911 172 b 504 986 911 801 756 986 b 97 486 253 986 97 801 b 504 -14 97 172 253 -14 z m 504 64 b 183 486 301 64 183 218 b 504 908 183 754 301 908 b 825 486 707 908 825 754 b 504 64 825 218 707 64 z "},"Ó":{"ha":1008,"x_min":0,"x_max":0,"o":"m 396 1021 l 739 1133 l 706 1218 l 376 1067 z m 504 -14 b 911 486 756 -14 911 172 b 504 986 911 801 756 986 b 97 486 253 986 97 801 b 504 -14 97 172 253 -14 z m 504 64 b 183 486 301 64 183 218 b 504 908 183 754 301 908 b 825 486 707 908 825 754 b 504 64 825 218 707 64 z "},"Ô":{"ha":1008,"x_min":0,"x_max":0,"o":"m 281 1021 l 504 1128 l 728 1021 l 751 1057 l 504 1218 l 257 1057 z m 504 -14 b 911 486 756 -14 911 172 b 504 986 911 801 756 986 b 97 486 253 986 97 801 b 504 -14 97 172 253 -14 z m 504 64 b 183 486 301 64 183 218 b 504 908 183 754 301 908 b 825 486 707 908 825 754 b 504 64 825 218 707 64 z "},"Ö":{"ha":1008,"x_min":0,"x_max":0,"o":"m 365 1039 b 436 1110 404 1039 436 1071 b 365 1181 436 1149 404 1181 b 294 1110 326 1181 294 1149 b 365 1039 294 1071 326 1039 z m 643 1039 b 714 1110 682 1039 714 1071 b 643 1181 714 1149 682 1181 b 572 1110 604 1181 572 1149 b 643 1039 572 1071 604 1039 z m 504 -14 b 911 486 756 -14 911 172 b 504 986 911 801 756 986 b 97 486 253 986 97 801 b 504 -14 97 172 253 -14 z m 504 64 b 183 486 301 64 183 218 b 504 908 183 754 301 908 b 825 486 707 908 825 754 b 504 64 825 218 707 64 z "},"Ò":{"ha":1008,"x_min":0,"x_max":0,"o":"m 610 1021 l 629 1067 l 300 1218 l 267 1133 z m 504 -14 b 911 486 756 -14 911 172 b 504 986 911 801 756 986 b 97 486 253 986 97 801 b 504 -14 97 172 253 -14 z m 504 64 b 183 486 301 64 183 218 b 504 908 183 754 301 908 b 825 486 707 908 825 754 b 504 64 825 218 707 64 z "},"Ø":{"ha":1008,"x_min":0,"x_max":0,"o":"m 757 900 l 824 1031 l 743 1031 l 697 940 b 504 986 642 971 578 986 b 97 486 253 986 97 801 b 256 69 97 296 154 153 l 190 -60 l 271 -60 l 315 29 b 504 -14 371 1 433 -14 b 911 486 756 -14 911 172 b 757 900 911 675 856 817 z m 183 486 b 504 908 183 754 301 908 b 661 869 564 908 617 894 l 294 144 b 183 486 222 215 183 332 z m 504 64 b 353 100 446 64 396 76 l 718 824 b 825 486 788 751 825 638 b 504 64 825 218 707 64 z "},"Õ":{"ha":1008,"x_min":0,"x_max":0,"o":"m 594 1038 b 721 1188 671 1038 724 1100 l 660 1188 b 600 1099 660 1126 640 1099 b 532 1139 568 1099 553 1119 b 419 1207 489 1179 468 1207 b 293 1057 343 1207 290 1144 l 354 1057 b 414 1146 354 1118 374 1146 b 482 1106 446 1146 461 1125 b 594 1038 525 1065 546 1038 z m 504 -14 b 911 486 756 -14 911 172 b 504 986 911 801 756 986 b 97 486 253 986 97 801 b 504 -14 97 172 253 -14 z m 504 64 b 183 486 301 64 183 218 b 504 908 183 754 301 908 b 825 486 707 908 825 754 b 504 64 825 218 707 64 z "},"Œ":{"ha":1361,"x_min":0,"x_max":0,"o":"m 558 0 l 1264 0 l 1264 78 l 792 78 l 792 456 l 1200 456 l 1200 533 l 792 533 l 792 894 l 1256 894 l 1256 972 l 558 972 b 97 481 269 972 97 790 b 558 0 97 182 271 0 z m 558 78 b 183 481 317 78 183 215 b 558 894 183 744 321 894 l 708 894 l 708 78 z "},"P":{"ha":819,"x_min":0,"x_max":0,"o":"m 139 0 l 222 0 l 222 411 l 458 411 b 764 692 667 411 764 542 b 458 972 764 838 667 972 l 139 972 z m 222 489 l 222 894 l 472 894 b 678 692 617 894 678 804 b 472 489 678 574 617 489 z "},"Þ":{"ha":833,"x_min":0,"x_max":0,"o":"m 139 0 l 222 0 l 222 211 l 458 211 b 764 492 667 211 764 342 b 458 772 764 638 667 772 l 222 772 l 222 972 l 139 972 z m 222 289 l 222 694 l 472 694 b 678 492 617 694 678 604 b 472 289 678 374 617 289 z "},"Q":{"ha":1008,"x_min":0,"x_max":0,"o":"m 911 486 b 504 986 911 801 756 986 b 97 486 253 986 97 801 b 504 -14 97 172 253 -14 b 608 -3 540 -14 575 -10 l 679 -206 l 750 -181 l 675 21 b 911 486 824 89 911 251 z m 647 96 l 582 281 l 511 254 l 581 72 b 504 64 557 67 531 64 b 183 486 301 64 183 218 b 504 908 183 754 301 908 b 825 486 707 908 825 754 b 647 96 825 290 761 154 z "},"R":{"ha":886,"x_min":0,"x_max":0,"o":"m 796 0 l 563 418 b 789 692 717 447 789 563 b 483 972 789 838 692 972 l 139 972 l 139 0 l 222 0 l 222 411 l 478 411 l 701 0 z m 222 894 l 497 894 b 703 692 642 894 703 804 b 497 489 703 574 642 489 l 222 489 z "},"S":{"ha":888,"x_min":0,"x_max":0,"o":"m 463 -14 b 783 254 651 -14 783 96 b 471 528 783 389 699 465 b 208 733 278 581 208 632 b 428 908 208 829 297 908 b 689 672 568 908 668 818 l 772 672 b 428 986 747 869 619 986 b 125 729 250 986 125 869 b 414 457 125 585 229 506 b 697 246 643 397 697 340 b 463 64 697 139 600 64 b 189 279 318 64 214 146 l 104 279 b 463 -14 135 97 271 -14 z "},"Š":{"ha":888,"x_min":0,"x_max":0,"o":"m 219 1225 l 196 1189 l 443 1028 l 690 1189 l 667 1225 l 443 1118 z m 463 -14 b 783 254 651 -14 783 96 b 471 528 783 389 699 465 b 208 733 278 581 208 632 b 428 908 208 829 297 908 b 689 672 568 908 668 818 l 772 672 b 428 986 747 869 619 986 b 125 729 250 986 125 869 b 414 457 125 585 229 506 b 697 246 643 397 697 340 b 463 64 697 139 600 64 b 189 279 318 64 214 146 l 104 279 b 463 -14 135 97 271 -14 z "},"T":{"ha":847,"x_min":0,"x_max":0,"o":"m 382 0 l 465 0 l 465 894 l 799 894 l 799 972 l 49 972 l 49 894 l 382 894 z "},"Ŧ":{"ha":875,"x_min":0,"x_max":0,"o":"m 813 894 l 813 972 l 63 972 l 63 894 l 396 894 l 396 522 l 222 522 l 222 450 l 396 450 l 396 0 l 479 0 l 479 450 l 653 450 l 653 522 l 479 522 l 479 894 z "},"U":{"ha":947,"x_min":0,"x_max":0,"o":"m 474 -14 b 836 339 656 -14 836 71 l 836 972 l 753 972 l 753 340 b 474 64 753 139 614 64 b 194 340 335 64 194 139 l 194 972 l 111 972 l 111 339 b 474 -14 111 71 293 -14 z "},"Ú":{"ha":947,"x_min":0,"x_max":0,"o":"m 365 1021 l 708 1133 l 675 1218 l 346 1067 z m 474 -14 b 836 339 656 -14 836 71 l 836 972 l 753 972 l 753 340 b 474 64 753 139 614 64 b 194 340 335 64 194 139 l 194 972 l 111 972 l 111 339 b 474 -14 111 71 293 -14 z "},"Û":{"ha":947,"x_min":0,"x_max":0,"o":"m 250 1021 l 474 1128 l 697 1021 l 721 1057 l 474 1218 l 226 1057 z m 474 -14 b 836 339 656 -14 836 71 l 836 972 l 753 972 l 753 340 b 474 64 753 139 614 64 b 194 340 335 64 194 139 l 194 972 l 111 972 l 111 339 b 474 -14 111 71 293 -14 z "},"Ü":{"ha":947,"x_min":0,"x_max":0,"o":"m 335 1039 b 406 1110 374 1039 406 1071 b 335 1181 406 1149 374 1181 b 264 1110 296 1181 264 1149 b 335 1039 264 1071 296 1039 z m 613 1039 b 683 1110 651 1039 683 1071 b 613 1181 683 1149 651 1181 b 542 1110 574 1181 542 1149 b 613 1039 542 1071 574 1039 z m 474 -14 b 836 339 656 -14 836 71 l 836 972 l 753 972 l 753 340 b 474 64 753 139 614 64 b 194 340 335 64 194 139 l 194 972 l 111 972 l 111 339 b 474 -14 111 71 293 -14 z "},"Ù":{"ha":947,"x_min":0,"x_max":0,"o":"m 579 1021 l 599 1067 l 269 1218 l 236 1133 z m 474 -14 b 836 339 656 -14 836 71 l 836 972 l 753 972 l 753 340 b 474 64 753 139 614 64 b 194 340 335 64 194 139 l 194 972 l 111 972 l 111 339 b 474 -14 111 71 293 -14 z "},"V":{"ha":951,"x_min":0,"x_max":0,"o":"m 807 972 l 478 117 l 147 972 l 56 972 l 439 0 l 511 0 l 896 972 z "},"W":{"ha":1419,"x_min":0,"x_max":0,"o":"m 1233 972 l 1013 147 l 756 972 l 664 972 l 411 151 l 189 972 l 97 972 l 367 0 l 447 0 l 708 844 l 972 0 l 1053 0 l 1322 972 z "},"Ẃ":{"ha":1419,"x_min":0,"x_max":0,"o":"m 944 1133 l 911 1218 l 582 1067 l 601 1021 z m 1233 972 l 1013 147 l 756 972 l 664 972 l 411 151 l 189 972 l 97 972 l 367 0 l 447 0 l 708 844 l 972 0 l 1053 0 l 1322 972 z "},"Ŵ":{"ha":1419,"x_min":0,"x_max":0,"o":"m 710 1128 l 933 1021 l 957 1057 l 710 1218 l 463 1057 l 486 1021 z m 1233 972 l 1013 147 l 756 972 l 664 972 l 411 151 l 189 972 l 97 972 l 367 0 l 447 0 l 708 844 l 972 0 l 1053 0 l 1322 972 z "},"Ẅ":{"ha":1419,"x_min":0,"x_max":0,"o":"m 571 1039 b 642 1110 610 1039 642 1071 b 571 1181 642 1149 610 1181 b 500 1110 532 1181 500 1149 b 571 1039 500 1071 532 1039 z m 849 1039 b 919 1110 888 1039 919 1071 b 849 1181 919 1149 888 1181 b 778 1110 810 1181 778 1149 b 849 1039 778 1071 810 1039 z m 1233 972 l 1013 147 l 756 972 l 664 972 l 411 151 l 189 972 l 97 972 l 367 0 l 447 0 l 708 844 l 972 0 l 1053 0 l 1322 972 z "},"Ẁ":{"ha":1419,"x_min":0,"x_max":0,"o":"m 835 1067 l 506 1218 l 472 1133 l 815 1021 z m 1233 972 l 1013 147 l 756 972 l 664 972 l 411 151 l 189 972 l 97 972 l 367 0 l 447 0 l 708 844 l 972 0 l 1053 0 l 1322 972 z "},"X":{"ha":978,"x_min":0,"x_max":0,"o":"m 69 0 l 169 0 l 478 449 l 806 0 l 908 0 l 546 503 l 881 972 l 781 972 l 500 564 l 200 972 l 97 972 l 431 510 z "},"Y":{"ha":867,"x_min":0,"x_max":0,"o":"m 392 0 l 475 0 l 475 408 l 825 972 l 733 972 l 435 485 l 136 972 l 42 972 l 392 408 z "},"Ý":{"ha":867,"x_min":0,"x_max":0,"o":"m 325 1021 l 668 1133 l 635 1218 l 306 1067 z m 392 0 l 475 0 l 475 408 l 825 972 l 733 972 l 435 485 l 136 972 l 42 972 l 392 408 z "},"Ŷ":{"ha":867,"x_min":0,"x_max":0,"o":"m 210 1021 l 433 1128 l 657 1021 l 681 1057 l 433 1218 l 186 1057 z m 392 0 l 475 0 l 475 408 l 825 972 l 733 972 l 435 485 l 136 972 l 42 972 l 392 408 z "},"Ÿ":{"ha":867,"x_min":0,"x_max":0,"o":"m 294 1039 b 365 1110 333 1039 365 1071 b 294 1181 365 1149 333 1181 b 224 1110 256 1181 224 1149 b 294 1039 224 1071 256 1039 z m 572 1039 b 643 1110 611 1039 643 1071 b 572 1181 643 1149 611 1181 b 501 1110 533 1181 501 1149 b 572 1039 501 1071 533 1039 z m 392 0 l 475 0 l 475 408 l 825 972 l 733 972 l 435 485 l 136 972 l 42 972 l 392 408 z "},"Ỳ":{"ha":867,"x_min":0,"x_max":0,"o":"m 539 1021 l 558 1067 l 229 1218 l 196 1133 z m 392 0 l 475 0 l 475 408 l 825 972 l 733 972 l 435 485 l 136 972 l 42 972 l 392 408 z "},"Z":{"ha":931,"x_min":0,"x_max":0,"o":"m 104 0 l 826 0 l 826 78 l 204 78 l 813 894 l 813 972 l 118 972 l 118 894 l 713 894 l 104 78 z "},"Ž":{"ha":931,"x_min":0,"x_max":0,"o":"m 249 1225 l 225 1189 l 472 1028 l 719 1189 l 696 1225 l 472 1118 z m 104 0 l 826 0 l 826 78 l 204 78 l 813 894 l 813 972 l 118 972 l 118 894 l 713 894 l 104 78 z "},"a":{"ha":954,"x_min":0,"x_max":0,"o":"m 56 0 l 167 0 l 201 321 l 742 321 l 785 0 l 899 0 l 728 360 l 528 972 l 428 972 l 214 360 z m 232 399 l 475 860 l 711 399 z "},"á":{"ha":954,"x_min":0,"x_max":0,"o":"m 368 1021 l 711 1133 l 678 1218 l 349 1067 z m 56 0 l 167 0 l 201 321 l 742 321 l 785 0 l 899 0 l 728 360 l 528 972 l 428 972 l 214 360 z m 232 399 l 475 860 l 711 399 z "},"â":{"ha":954,"x_min":0,"x_max":0,"o":"m 253 1021 l 476 1128 l 700 1021 l 724 1057 l 476 1218 l 229 1057 z m 56 0 l 167 0 l 201 321 l 742 321 l 785 0 l 899 0 l 728 360 l 528 972 l 428 972 l 214 360 z m 232 399 l 475 860 l 711 399 z "},"ä":{"ha":954,"x_min":0,"x_max":0,"o":"m 338 1039 b 408 1110 376 1039 408 1071 b 338 1181 408 1149 376 1181 b 267 1110 299 1181 267 1149 b 338 1039 267 1071 299 1039 z m 615 1039 b 686 1110 654 1039 686 1071 b 615 1181 686 1149 654 1181 b 544 1110 576 1181 544 1149 b 615 1039 544 1071 576 1039 z m 56 0 l 167 0 l 201 321 l 742 321 l 785 0 l 899 0 l 728 360 l 528 972 l 428 972 l 214 360 z m 232 399 l 475 860 l 711 399 z "},"à":{"ha":954,"x_min":0,"x_max":0,"o":"m 582 1021 l 601 1067 l 272 1218 l 239 1133 z m 56 0 l 167 0 l 201 321 l 742 321 l 785 0 l 899 0 l 728 360 l 528 972 l 428 972 l 214 360 z m 232 399 l 475 860 l 711 399 z "},"å":{"ha":954,"x_min":0,"x_max":0,"o":"m 476 988 b 614 1126 553 988 614 1050 b 476 1264 614 1203 553 1264 b 338 1126 399 1264 338 1203 b 476 988 338 1050 399 988 z m 476 1049 b 401 1126 435 1049 401 1078 b 476 1203 401 1174 435 1203 b 550 1126 517 1203 550 1174 b 476 1049 550 1078 517 1049 z m 56 0 l 167 0 l 201 321 l 742 321 l 785 0 l 899 0 l 728 360 l 528 972 l 428 972 l 214 360 z m 232 399 l 475 860 l 711 399 z "},"ã":{"ha":954,"x_min":0,"x_max":0,"o":"m 567 1038 b 693 1188 643 1038 696 1100 l 632 1188 b 572 1099 632 1126 613 1099 b 504 1139 540 1099 525 1119 b 392 1207 461 1179 440 1207 b 265 1057 315 1207 263 1144 l 326 1057 b 386 1146 326 1118 346 1146 b 454 1106 418 1146 433 1125 b 567 1038 497 1065 518 1038 z m 56 0 l 167 0 l 201 321 l 742 321 l 785 0 l 899 0 l 728 360 l 528 972 l 428 972 l 214 360 z m 232 399 l 475 860 l 711 399 z "},"æ":{"ha":1354,"x_min":0,"x_max":0,"o":"m 42 0 l 164 0 l 296 378 l 729 378 l 692 0 l 1257 0 l 1257 78 l 786 78 l 740 456 l 1179 456 l 1179 533 l 740 533 l 786 894 l 1235 894 l 1235 972 l 650 972 l 317 418 z m 344 456 l 700 885 l 740 494 l 736 456 z "},"b":{"ha":863,"x_min":0,"x_max":0,"o":"m 132 0 l 475 0 b 779 267 681 0 779 129 b 617 503 779 365 729 453 b 733 708 699 544 733 624 b 458 972 733 846 646 972 l 132 972 l 181 490 z m 181 529 l 226 894 l 472 894 b 647 707 596 894 647 811 b 479 529 647 600 596 529 z m 226 78 l 181 451 l 492 451 b 693 264 631 451 693 375 b 485 78 693 161 631 78 z "},"c":{"ha":999,"x_min":0,"x_max":0,"o":"m 518 -14 b 876 279 701 -14 844 90 l 792 279 b 518 64 765 139 656 64 b 100 486 307 64 183 218 b 515 908 183 754 306 908 b 796 667 658 908 772 825 l 881 667 b 515 986 853 879 706 986 b 97 486 257 986 97 801 b 518 -14 97 172 258 -14 z "},"ć":{"ha":999,"x_min":0,"x_max":0,"o":"m 392 1021 l 735 1133 l 701 1218 l 372 1067 z m 518 -14 b 876 279 701 -14 844 90 l 792 279 b 518 64 765 139 656 64 b 100 486 307 64 183 218 b 515 908 183 754 306 908 b 796 667 658 908 772 825 l 881 667 b 515 986 853 879 706 986 b 97 486 257 986 97 801 b 518 -14 97 172 258 -14 z "},"č":{"ha":999,"x_min":0,"x_max":0,"o":"m 276 1225 l 253 1189 l 500 1028 l 747 1189 l 724 1225 l 500 1118 z m 518 -14 b 876 279 701 -14 844 90 l 792 279 b 518 64 765 139 656 64 b 100 486 307 64 183 218 b 515 908 183 754 306 908 b 796 667 658 908 772 825 l 881 667 b 515 986 853 879 706 986 b 97 486 257 986 97 801 b 518 -14 97 172 258 -14 z "},"ç":{"ha":999,"x_min":0,"x_max":0,"o":"m 518 64 b 100 486 307 64 183 218 b 515 908 183 754 306 908 b 796 667 658 908 772 825 l 881 667 b 515 986 853 879 706 986 b 97 486 257 986 97 801 b 474 -12 97 190 240 8 l 418 -81 l 449 -124 b 508 -115 469 -118 489 -115 b 579 -169 561 -115 579 -144 b 493 -233 579 -194 563 -233 b 418 -222 474 -233 449 -231 l 419 -278 b 501 -290 451 -286 481 -290 b 643 -169 610 -290 643 -218 b 503 -58 643 -114 603 -54 l 539 -14 b 876 279 713 -6 846 97 l 792 279 b 518 64 765 139 656 64 z "},"d":{"ha":986,"x_min":0,"x_max":0,"o":"m 132 0 l 428 0 b 889 481 715 0 889 182 b 428 972 889 790 717 972 l 132 972 l 179 486 z m 226 78 l 182 486 l 226 894 l 428 894 b 803 481 665 894 803 744 b 428 78 803 215 669 78 z "},"ð":{"ha":986,"x_min":0,"x_max":0,"o":"m 428 972 l 132 972 l 175 522 l 42 522 l 42 450 l 175 450 l 132 0 l 428 0 b 889 481 715 0 889 182 b 428 972 889 790 717 972 z m 428 78 l 226 78 l 186 450 l 389 450 l 389 522 l 186 522 l 226 894 l 428 894 b 803 481 665 894 803 744 b 428 78 803 215 669 78 z "},"đ":{"ha":986,"x_min":0,"x_max":0,"o":"m 428 972 l 132 972 l 175 522 l 42 522 l 42 450 l 175 450 l 132 0 l 428 0 b 889 481 715 0 889 182 b 428 972 889 790 717 972 z m 428 78 l 226 78 l 186 450 l 389 450 l 389 522 l 186 522 l 226 894 l 428 894 b 803 481 665 894 803 744 b 428 78 803 215 669 78 z "},"e":{"ha":828,"x_min":0,"x_max":0,"o":"m 133 0 l 731 0 l 731 78 l 228 78 l 181 456 l 667 456 l 667 533 l 181 533 l 228 894 l 722 894 l 722 972 l 133 972 l 181 494 z "},"é":{"ha":828,"x_min":0,"x_max":0,"o":"m 313 1021 l 656 1133 l 622 1218 l 293 1067 z m 133 0 l 731 0 l 731 78 l 228 78 l 181 456 l 667 456 l 667 533 l 181 533 l 228 894 l 722 894 l 722 972 l 133 972 l 181 494 z "},"ê":{"ha":828,"x_min":0,"x_max":0,"o":"m 197 1021 l 421 1128 l 644 1021 l 668 1057 l 421 1218 l 174 1057 z m 133 0 l 731 0 l 731 78 l 228 78 l 181 456 l 667 456 l 667 533 l 181 533 l 228 894 l 722 894 l 722 972 l 133 972 l 181 494 z "},"ë":{"ha":828,"x_min":0,"x_max":0,"o":"m 282 1039 b 353 1110 321 1039 353 1071 b 282 1181 353 1149 321 1181 b 211 1110 243 1181 211 1149 b 282 1039 211 1071 243 1039 z m 560 1039 b 631 1110 599 1039 631 1071 b 560 1181 631 1149 599 1181 b 489 1110 521 1181 489 1149 b 560 1039 489 1071 521 1039 z m 133 0 l 731 0 l 731 78 l 228 78 l 181 456 l 667 456 l 667 533 l 181 533 l 228 894 l 722 894 l 722 972 l 133 972 l 181 494 z "},"è":{"ha":828,"x_min":0,"x_max":0,"o":"m 526 1021 l 546 1067 l 217 1218 l 183 1133 z m 133 0 l 731 0 l 731 78 l 228 78 l 181 456 l 667 456 l 667 533 l 181 533 l 228 894 l 722 894 l 722 972 l 133 972 l 181 494 z "},"f":{"ha":764,"x_min":0,"x_max":0,"o":"m 133 0 l 228 0 l 181 447 l 625 447 l 625 525 l 181 525 l 225 894 l 681 894 l 681 972 l 133 972 l 181 486 z "},"g":{"ha":1013,"x_min":0,"x_max":0,"o":"m 539 -14 b 871 138 682 -14 788 51 l 871 506 l 443 506 l 443 428 l 788 428 l 868 138 b 568 67 753 85 678 67 b 100 486 308 67 183 218 b 515 908 183 754 306 908 b 796 681 658 908 772 829 l 881 681 b 515 986 853 883 706 986 b 97 486 257 986 97 801 b 539 -14 97 172 263 -14 z "},"h":{"ha":972,"x_min":0,"x_max":0,"o":"m 131 0 l 231 0 l 161 450 l 813 450 l 742 0 l 842 0 l 814 490 l 842 972 l 742 972 l 813 528 l 161 528 l 231 972 l 131 972 l 158 490 z "},"i":{"ha":361,"x_min":0,"x_max":0,"o":"m 131 0 l 231 0 l 182 489 l 231 972 l 131 972 l 179 489 z "},"í":{"ha":361,"x_min":0,"x_max":0,"o":"m 72 1021 l 415 1133 l 382 1218 l 53 1067 z m 131 0 l 231 0 l 182 489 l 231 972 l 131 972 l 179 489 z "},"î":{"ha":361,"x_min":0,"x_max":0,"o":"m -1 1021 l 181 1128 l 363 1021 l 386 1051 l 181 1218 l -25 1051 z m 131 0 l 231 0 l 182 489 l 231 972 l 131 972 l 179 489 z "},"ï":{"ha":361,"x_min":0,"x_max":0,"o":"m 69 1039 b 140 1110 108 1039 140 1071 b 69 1181 140 1149 108 1181 b -1 1110 31 1181 -1 1149 b 69 1039 -1 1071 31 1039 z m 292 1039 b 363 1110 331 1039 363 1071 b 292 1181 363 1149 331 1181 b 221 1110 253 1181 221 1149 b 292 1039 221 1071 253 1039 z m 131 0 l 231 0 l 182 489 l 231 972 l 131 972 l 179 489 z "},"ì":{"ha":361,"x_min":0,"x_max":0,"o":"m 286 1021 l 306 1067 l -24 1218 l -57 1133 z m 131 0 l 231 0 l 182 489 l 231 972 l 131 972 l 179 489 z "},"j":{"ha":756,"x_min":0,"x_max":0,"o":"m 354 -14 b 631 344 533 -14 678 94 l 604 486 l 651 972 l 551 972 l 599 486 b 354 64 585 175 535 64 b 154 257 247 64 161 128 l 69 257 b 354 -14 82 78 201 -14 z "},"k":{"ha":906,"x_min":0,"x_max":0,"o":"m 728 0 l 836 0 l 389 568 l 814 972 l 700 972 l 182 469 l 231 972 l 131 972 l 181 417 l 131 0 l 231 0 l 179 368 l 328 510 z "},"l":{"ha":772,"x_min":0,"x_max":0,"o":"m 135 0 l 689 0 l 689 78 l 226 78 l 182 486 l 231 972 l 131 972 l 179 486 z "},"m":{"ha":1206,"x_min":0,"x_max":0,"o":"m 153 0 l 236 0 l 236 774 l 426 486 l 556 132 l 650 132 l 779 486 l 969 774 l 969 0 l 1053 0 l 1053 972 l 967 972 l 776 486 l 603 235 l 429 486 l 239 972 l 153 972 z "},"n":{"ha":1014,"x_min":0,"x_max":0,"o":"m 146 0 l 229 0 l 229 799 l 514 463 l 790 0 l 868 0 l 868 972 l 785 972 l 785 163 l 517 464 l 229 972 l 146 972 z "},"ŋ":{"ha":1014,"x_min":0,"x_max":0,"o":"m 785 972 l 785 163 l 517 464 l 229 972 l 146 972 l 146 0 l 229 0 l 229 799 l 514 463 l 782 26 b 619 -144 776 -83 715 -144 l 619 -222 b 868 63 776 -222 868 -106 l 868 972 z "},"ñ":{"ha":1014,"x_min":0,"x_max":0,"o":"m 597 1038 b 724 1188 674 1038 726 1100 l 663 1188 b 603 1099 663 1126 643 1099 b 535 1139 571 1099 556 1119 b 422 1207 492 1179 471 1207 b 296 1057 346 1207 293 1144 l 357 1057 b 417 1146 357 1118 376 1146 b 485 1106 449 1146 464 1125 b 597 1038 528 1065 549 1038 z m 146 0 l 229 0 l 229 799 l 514 463 l 790 0 l 868 0 l 868 972 l 785 972 l 785 163 l 517 464 l 229 972 l 146 972 z "},"o":{"ha":1008,"x_min":0,"x_max":0,"o":"m 504 -14 b 911 486 756 -14 911 172 b 504 986 911 801 756 986 b 97 486 253 986 97 801 b 504 -14 97 172 253 -14 z m 504 64 b 100 486 301 64 183 218 b 504 908 183 754 301 908 b 908 486 707 908 825 754 b 504 64 825 218 707 64 z "},"ó":{"ha":1008,"x_min":0,"x_max":0,"o":"m 396 1021 l 739 1133 l 706 1218 l 376 1067 z m 504 -14 b 911 486 756 -14 911 172 b 504 986 911 801 756 986 b 97 486 253 986 97 801 b 504 -14 97 172 253 -14 z m 504 64 b 100 486 301 64 183 218 b 504 908 183 754 301 908 b 908 486 707 908 825 754 b 504 64 825 218 707 64 z "},"ô":{"ha":1008,"x_min":0,"x_max":0,"o":"m 281 1021 l 504 1128 l 728 1021 l 751 1057 l 504 1218 l 257 1057 z m 504 -14 b 911 486 756 -14 911 172 b 504 986 911 801 756 986 b 97 486 253 986 97 801 b 504 -14 97 172 253 -14 z m 504 64 b 100 486 301 64 183 218 b 504 908 183 754 301 908 b 908 486 707 908 825 754 b 504 64 825 218 707 64 z "},"ö":{"ha":1008,"x_min":0,"x_max":0,"o":"m 365 1039 b 436 1110 404 1039 436 1071 b 365 1181 436 1149 404 1181 b 294 1110 326 1181 294 1149 b 365 1039 294 1071 326 1039 z m 643 1039 b 714 1110 682 1039 714 1071 b 643 1181 714 1149 682 1181 b 572 1110 604 1181 572 1149 b 643 1039 572 1071 604 1039 z m 504 -14 b 911 486 756 -14 911 172 b 504 986 911 801 756 986 b 97 486 253 986 97 801 b 504 -14 97 172 253 -14 z m 504 64 b 100 486 301 64 183 218 b 504 908 183 754 301 908 b 908 486 707 908 825 754 b 504 64 825 218 707 64 z "},"ò":{"ha":1008,"x_min":0,"x_max":0,"o":"m 610 1021 l 629 1067 l 300 1218 l 267 1133 z m 504 -14 b 911 486 756 -14 911 172 b 504 986 911 801 756 986 b 97 486 253 986 97 801 b 504 -14 97 172 253 -14 z m 504 64 b 100 486 301 64 183 218 b 504 908 183 754 301 908 b 908 486 707 908 825 754 b 504 64 825 218 707 64 z "},"ø":{"ha":1008,"x_min":0,"x_max":0,"o":"m 757 900 l 824 1031 l 743 1031 l 697 940 b 504 986 642 971 578 986 b 97 486 253 986 97 801 b 256 69 97 296 154 153 l 190 -60 l 271 -60 l 315 29 b 504 -14 371 1 433 -14 b 911 486 756 -14 911 172 b 757 900 911 675 856 817 z m 100 486 b 504 908 183 754 301 908 b 661 869 564 908 615 896 l 292 140 b 100 486 210 211 149 329 z m 504 64 b 351 100 447 64 397 76 l 721 828 b 908 486 801 757 861 640 b 504 64 825 218 707 64 z "},"õ":{"ha":1008,"x_min":0,"x_max":0,"o":"m 594 1038 b 721 1188 671 1038 724 1100 l 660 1188 b 600 1099 660 1126 640 1099 b 532 1139 568 1099 553 1119 b 419 1207 489 1179 468 1207 b 293 1057 343 1207 290 1144 l 354 1057 b 414 1146 354 1118 374 1146 b 482 1106 446 1146 461 1125 b 594 1038 525 1065 546 1038 z m 504 -14 b 911 486 756 -14 911 172 b 504 986 911 801 756 986 b 97 486 253 986 97 801 b 504 -14 97 172 253 -14 z m 504 64 b 100 486 301 64 183 218 b 504 908 183 754 301 908 b 908 486 707 908 825 754 b 504 64 825 218 707 64 z "},"œ":{"ha":1361,"x_min":0,"x_max":0,"o":"m 558 0 l 1264 0 l 1264 78 l 810 78 l 763 456 l 1200 456 l 1200 533 l 763 533 l 810 894 l 1256 894 l 1256 972 l 558 972 b 97 481 269 972 97 790 b 558 0 97 182 271 0 z m 558 78 b 100 481 317 78 183 215 b 558 894 183 744 321 894 l 718 894 l 763 494 l 718 78 z "},"p":{"ha":819,"x_min":0,"x_max":0,"o":"m 131 0 l 231 0 l 181 411 l 458 411 b 764 692 667 411 764 542 b 458 972 764 838 667 972 l 135 972 l 181 450 z m 181 489 l 226 894 l 472 894 b 678 692 617 894 678 804 b 472 489 678 574 617 489 z "},"þ":{"ha":833,"x_min":0,"x_max":0,"o":"m 458 772 l 210 772 l 229 972 l 131 972 l 179 486 l 131 0 l 229 0 l 208 211 l 458 211 b 764 492 667 211 764 342 b 458 772 764 638 667 772 z m 472 289 l 201 289 l 182 486 l 203 694 l 472 694 b 678 492 617 694 678 604 b 472 289 678 374 617 289 z "},"q":{"ha":1008,"x_min":0,"x_max":0,"o":"m 911 486 b 504 986 911 801 756 986 b 97 486 253 986 97 801 b 504 -14 97 172 253 -14 b 608 -3 540 -14 575 -10 l 679 -207 l 750 -181 l 675 21 b 911 486 824 89 911 251 z m 649 96 l 582 281 l 511 254 l 581 72 b 504 64 557 67 531 64 b 100 486 301 64 183 218 b 504 908 183 754 301 908 b 908 486 707 908 825 754 b 649 96 847 289 767 153 z "},"r":{"ha":886,"x_min":0,"x_max":0,"o":"m 701 0 l 796 0 l 563 418 b 789 692 717 447 789 563 b 483 972 789 838 692 972 l 135 972 l 181 450 l 131 0 l 231 0 l 181 411 l 478 411 z m 226 894 l 497 894 b 703 692 642 894 703 804 b 497 489 703 574 642 489 l 181 489 z "},"s":{"ha":888,"x_min":0,"x_max":0,"o":"m 463 -14 b 783 254 651 -14 783 96 b 461 488 783 392 697 467 b 208 733 276 579 208 632 b 428 908 208 829 297 908 b 689 672 568 908 668 818 l 774 672 b 428 986 749 869 619 986 b 125 729 250 986 125 869 b 461 485 125 582 231 507 b 697 246 643 400 697 340 b 463 64 697 139 600 64 b 189 279 318 64 214 146 l 104 279 b 463 -14 135 97 271 -14 z "},"š":{"ha":888,"x_min":0,"x_max":0,"o":"m 219 1225 l 196 1189 l 443 1028 l 690 1189 l 667 1225 l 443 1118 z m 463 -14 b 783 254 651 -14 783 96 b 461 488 783 392 697 467 b 208 733 276 579 208 632 b 428 908 208 829 297 908 b 689 672 568 908 668 818 l 774 672 b 428 986 749 869 619 986 b 125 729 250 986 125 869 b 461 485 125 582 231 507 b 697 246 643 400 697 340 b 463 64 697 139 600 64 b 189 279 318 64 214 146 l 104 279 b 463 -14 135 97 271 -14 z "},"t":{"ha":847,"x_min":0,"x_max":0,"o":"m 374 0 l 474 0 l 425 474 l 469 896 l 799 896 l 799 972 l 49 972 l 49 896 l 378 896 l 422 474 z "},"ŧ":{"ha":875,"x_min":0,"x_max":0,"o":"m 813 896 l 813 972 l 63 972 l 63 896 l 392 896 l 431 522 l 222 522 l 222 450 l 433 450 l 388 0 l 488 0 l 442 450 l 653 450 l 653 522 l 444 522 l 483 896 z "},"u":{"ha":947,"x_min":0,"x_max":0,"o":"m 474 -14 b 817 408 656 -14 881 79 l 796 517 l 842 972 l 747 972 l 793 517 l 768 340 b 474 64 740 143 614 64 b 179 340 335 64 207 143 l 154 517 l 200 972 l 106 972 l 151 517 l 129 408 b 474 -14 63 81 293 -14 z "},"ú":{"ha":947,"x_min":0,"x_max":0,"o":"m 365 1021 l 708 1133 l 675 1218 l 346 1067 z m 474 -14 b 817 408 656 -14 881 79 l 796 517 l 842 972 l 747 972 l 793 517 l 768 340 b 474 64 740 143 614 64 b 179 340 335 64 207 143 l 154 517 l 200 972 l 106 972 l 151 517 l 129 408 b 474 -14 63 81 293 -14 z "},"û":{"ha":947,"x_min":0,"x_max":0,"o":"m 250 1021 l 474 1128 l 697 1021 l 721 1057 l 474 1218 l 226 1057 z m 474 -14 b 817 408 656 -14 881 79 l 796 517 l 842 972 l 747 972 l 793 517 l 768 340 b 474 64 740 143 614 64 b 179 340 335 64 207 143 l 154 517 l 200 972 l 106 972 l 151 517 l 129 408 b 474 -14 63 81 293 -14 z "},"ü":{"ha":947,"x_min":0,"x_max":0,"o":"m 335 1039 b 406 1110 374 1039 406 1071 b 335 1181 406 1149 374 1181 b 264 1110 296 1181 264 1149 b 335 1039 264 1071 296 1039 z m 613 1039 b 683 1110 651 1039 683 1071 b 613 1181 683 1149 651 1181 b 542 1110 574 1181 542 1149 b 613 1039 542 1071 574 1039 z m 474 -14 b 817 408 656 -14 881 79 l 796 517 l 842 972 l 747 972 l 793 517 l 768 340 b 474 64 740 143 614 64 b 179 340 335 64 207 143 l 154 517 l 200 972 l 106 972 l 151 517 l 129 408 b 474 -14 63 81 293 -14 z "},"ù":{"ha":947,"x_min":0,"x_max":0,"o":"m 579 1021 l 599 1067 l 269 1218 l 236 1133 z m 474 -14 b 817 408 656 -14 881 79 l 796 517 l 842 972 l 747 972 l 793 517 l 768 340 b 474 64 740 143 614 64 b 179 340 335 64 207 143 l 154 517 l 200 972 l 106 972 l 151 517 l 129 408 b 474 -14 63 81 293 -14 z "},"v":{"ha":951,"x_min":0,"x_max":0,"o":"m 788 972 l 665 489 l 478 103 l 285 489 l 167 972 l 56 972 l 281 489 l 429 0 l 521 0 l 669 489 l 896 972 z "},"w":{"ha":1419,"x_min":0,"x_max":0,"o":"m 1233 972 l 1013 143 l 865 486 l 768 972 l 651 972 l 554 486 l 411 147 l 189 972 l 97 972 l 367 0 l 450 0 l 557 486 l 708 854 l 863 486 l 969 0 l 1053 0 l 1322 972 z "},"ẃ":{"ha":1419,"x_min":0,"x_max":0,"o":"m 944 1133 l 911 1218 l 582 1067 l 601 1021 z m 1233 972 l 1013 143 l 865 486 l 768 972 l 651 972 l 554 486 l 411 147 l 189 972 l 97 972 l 367 0 l 450 0 l 557 486 l 708 854 l 863 486 l 969 0 l 1053 0 l 1322 972 z "},"ŵ":{"ha":1419,"x_min":0,"x_max":0,"o":"m 710 1128 l 933 1021 l 957 1057 l 710 1218 l 463 1057 l 486 1021 z m 1233 972 l 1013 143 l 865 486 l 768 972 l 651 972 l 554 486 l 411 147 l 189 972 l 97 972 l 367 0 l 450 0 l 557 486 l 708 854 l 863 486 l 969 0 l 1053 0 l 1322 972 z "},"ẅ":{"ha":1419,"x_min":0,"x_max":0,"o":"m 571 1039 b 642 1110 610 1039 642 1071 b 571 1181 642 1149 610 1181 b 500 1110 532 1181 500 1149 b 571 1039 500 1071 532 1039 z m 849 1039 b 919 1110 888 1039 919 1071 b 849 1181 919 1149 888 1181 b 778 1110 810 1181 778 1149 b 849 1039 778 1071 810 1039 z m 1233 972 l 1013 143 l 865 486 l 768 972 l 651 972 l 554 486 l 411 147 l 189 972 l 97 972 l 367 0 l 450 0 l 557 486 l 708 854 l 863 486 l 969 0 l 1053 0 l 1322 972 z "},"ẁ":{"ha":1419,"x_min":0,"x_max":0,"o":"m 835 1067 l 506 1218 l 472 1133 l 815 1021 z m 1233 972 l 1013 143 l 865 486 l 768 972 l 651 972 l 554 486 l 411 147 l 189 972 l 97 972 l 367 0 l 450 0 l 557 486 l 708 854 l 863 486 l 969 0 l 1053 0 l 1322 972 z "},"x":{"ha":978,"x_min":0,"x_max":0,"o":"m 69 0 l 206 0 l 489 508 l 769 0 l 908 0 l 490 510 l 881 972 l 744 972 l 489 511 l 236 972 l 97 972 l 488 510 z "},"y":{"ha":867,"x_min":0,"x_max":0,"o":"m 392 0 l 475 0 l 475 486 l 811 972 l 700 972 l 433 407 l 169 972 l 56 972 l 392 486 z "},"ý":{"ha":867,"x_min":0,"x_max":0,"o":"m 325 1021 l 668 1133 l 635 1218 l 306 1067 z m 392 0 l 475 0 l 475 486 l 811 972 l 700 972 l 433 407 l 169 972 l 56 972 l 392 486 z "},"ŷ":{"ha":867,"x_min":0,"x_max":0,"o":"m 210 1021 l 433 1128 l 657 1021 l 681 1057 l 433 1218 l 186 1057 z m 392 0 l 475 0 l 475 486 l 811 972 l 700 972 l 433 407 l 169 972 l 56 972 l 392 486 z "},"ÿ":{"ha":867,"x_min":0,"x_max":0,"o":"m 294 1039 b 365 1110 333 1039 365 1071 b 294 1181 365 1149 333 1181 b 224 1110 256 1181 224 1149 b 294 1039 224 1071 256 1039 z m 572 1039 b 643 1110 611 1039 643 1071 b 572 1181 643 1149 611 1181 b 501 1110 533 1181 501 1149 b 572 1039 501 1071 533 1039 z m 392 0 l 475 0 l 475 486 l 811 972 l 700 972 l 433 407 l 169 972 l 56 972 l 392 486 z "},"ỳ":{"ha":867,"x_min":0,"x_max":0,"o":"m 539 1021 l 558 1067 l 229 1218 l 196 1133 z m 392 0 l 475 0 l 475 486 l 811 972 l 700 972 l 433 407 l 169 972 l 56 972 l 392 486 z "},"z":{"ha":931,"x_min":0,"x_max":0,"o":"m 104 0 l 826 0 l 826 78 l 221 78 l 458 489 l 813 894 l 813 972 l 118 972 l 118 894 l 697 894 l 454 489 l 104 78 z "},"ž":{"ha":931,"x_min":0,"x_max":0,"o":"m 249 1225 l 225 1189 l 472 1028 l 719 1189 l 696 1225 l 472 1118 z m 104 0 l 826 0 l 826 78 l 221 78 l 458 489 l 813 894 l 813 972 l 118 972 l 118 894 l 697 894 l 454 489 l 104 78 z "},".":{"ha":347,"x_min":0,"x_max":0,"o":"m 174 -7 b 250 69 215 -7 250 28 b 174 146 250 111 215 146 b 97 69 132 146 97 111 b 174 -7 97 28 132 -7 z "},",":{"ha":347,"x_min":0,"x_max":0,"o":"m 126 -236 b 261 36 210 -139 261 -49 b 174 146 261 99 233 146 b 97 69 132 146 97 111 b 188 -7 97 28 125 -14 b 97 -208 182 -74 164 -131 z "},":":{"ha":347,"x_min":0,"x_max":0,"o":"m 174 410 b 250 486 215 410 250 444 b 174 563 250 528 215 563 b 97 486 132 563 97 528 b 174 410 97 444 132 410 z m 174 -7 b 250 69 215 -7 250 28 b 174 146 250 111 215 146 b 97 69 132 146 97 111 b 174 -7 97 28 132 -7 z "},";":{"ha":347,"x_min":0,"x_max":0,"o":"m 174 410 b 250 486 215 410 250 444 b 174 563 250 528 215 563 b 97 486 132 563 97 528 b 174 410 97 444 132 410 z m 126 -236 b 261 36 210 -139 261 -49 b 174 146 261 99 233 146 b 97 69 132 146 97 111 b 188 -7 97 28 125 -14 b 97 -208 182 -74 164 -131 z "},"…":{"ha":1042,"x_min":0,"x_max":0,"o":"m 174 -7 b 250 69 215 -7 250 28 b 174 146 250 111 215 146 b 97 69 132 146 97 111 b 174 -7 97 28 132 -7 z m 521 -7 b 597 69 563 -7 597 28 b 521 146 597 111 563 146 b 444 69 479 146 444 111 b 521 -7 444 28 479 -7 z m 868 -7 b 944 69 910 -7 944 28 b 868 146 944 111 910 146 b 792 69 826 146 792 111 b 868 -7 792 28 826 -7 z "},"!":{"ha":431,"x_min":0,"x_max":0,"o":"m 190 292 l 246 292 l 268 972 l 168 972 z m 215 -7 b 292 69 257 -7 292 28 b 215 146 292 111 257 146 b 139 69 174 146 139 111 b 215 -7 139 28 174 -7 z "},"¡":{"ha":431,"x_min":0,"x_max":0,"o":"m 215 979 b 139 903 174 979 139 944 b 215 826 139 861 174 826 b 292 903 257 826 292 861 b 215 979 292 944 257 979 z m 240 681 l 185 681 l 163 0 l 263 0 z "},"?":{"ha":833,"x_min":0,"x_max":0,"o":"m 368 292 l 424 292 l 438 446 b 714 726 592 500 714 579 b 433 986 714 871 599 986 b 126 700 260 986 143 867 l 206 700 b 433 910 224 829 311 910 b 631 726 551 910 631 828 b 354 490 631 615 563 558 z m 399 -7 b 475 69 440 -7 475 28 b 399 146 475 111 440 146 b 322 69 357 146 322 111 b 399 -7 322 28 357 -7 z "},"¿":{"ha":833,"x_min":0,"x_max":0,"o":"m 438 979 b 361 903 396 979 361 944 b 438 826 361 861 396 826 b 514 903 479 826 514 861 b 438 979 514 944 479 979 z m 468 681 l 413 681 l 399 526 b 122 246 244 472 122 393 b 403 -14 122 101 238 -14 b 710 272 576 -14 693 106 l 631 272 b 403 63 613 143 525 63 b 206 246 285 63 206 144 b 482 482 206 357 274 414 z "},"·":{"ha":347,"x_min":0,"x_max":0,"o":"m 174 410 b 250 486 215 410 250 444 b 174 563 250 528 215 563 b 97 486 132 563 97 528 b 174 410 97 444 132 410 z "},"•":{"ha":563,"x_min":0,"x_max":0,"o":"m 282 374 b 396 488 344 374 396 425 b 282 603 396 550 344 603 b 167 488 219 603 167 550 b 282 374 167 425 219 374 z "},"*":{"ha":617,"x_min":0,"x_max":0,"o":"m 547 768 l 522 847 l 310 736 l 350 972 l 267 972 l 307 736 l 94 847 l 69 768 l 306 733 l 136 567 l 203 519 l 308 732 l 414 519 l 481 567 l 311 733 z "},"#":{"ha":1347,"x_min":0,"x_max":0,"o":"m 1208 694 l 1208 772 l 967 772 l 1042 1111 l 958 1111 l 883 772 l 592 772 l 667 1111 l 583 1111 l 508 772 l 236 772 l 236 694 l 490 694 l 404 304 l 139 304 l 139 226 l 386 226 l 306 -139 l 389 -139 l 469 226 l 761 226 l 681 -139 l 764 -139 l 844 226 l 1111 226 l 1111 304 l 863 304 l 949 694 z m 779 304 l 488 304 l 574 694 l 865 694 z "},"/":{"ha":639,"x_min":0,"x_max":0,"o":"m 139 -139 l 222 -139 l 500 1111 l 417 1111 z "},"\\":{"ha":639,"x_min":0,"x_max":0,"o":"m 500 -139 l 222 1111 l 139 1111 l 417 -139 z "},"(":{"ha":514,"x_min":0,"x_max":0,"o":"m 286 -139 l 375 -139 b 375 1111 133 292 133 681 l 286 1111 b 286 -139 53 694 53 278 z "},")":{"ha":514,"x_min":0,"x_max":0,"o":"m 228 -139 b 228 1111 461 278 461 694 l 139 1111 b 139 -139 381 681 381 292 z "},"{":{"ha":514,"x_min":0,"x_max":0,"o":"m 371 -139 l 403 -139 l 403 -61 l 361 -61 b 268 36 286 -61 268 -19 b 286 314 268 103 286 204 b 167 485 286 392 263 476 l 167 488 b 286 658 263 496 286 581 b 268 936 286 768 268 869 b 361 1033 268 992 286 1033 l 403 1033 l 403 1111 l 371 1111 b 190 936 221 1111 190 1028 b 208 664 190 843 208 751 b 83 525 208 590 185 525 l 83 447 b 208 308 185 447 208 382 b 190 36 208 221 190 129 b 371 -139 190 -56 221 -139 z "},"}":{"ha":514,"x_min":0,"x_max":0,"o":"m 143 -139 b 324 36 293 -139 324 -56 b 306 308 324 129 306 221 b 431 447 306 382 329 447 l 431 525 b 306 664 329 525 306 590 b 324 936 306 751 324 843 b 143 1111 324 1028 293 1111 l 111 1111 l 111 1033 l 153 1033 b 246 936 228 1033 246 992 b 228 658 246 869 228 768 b 347 488 228 581 251 496 l 347 485 b 228 314 251 476 228 392 b 246 36 228 204 246 103 b 153 -61 246 -19 228 -61 l 111 -61 l 111 -139 z "},"[":{"ha":514,"x_min":0,"x_max":0,"o":"m 139 -139 l 375 -139 l 375 -61 l 222 -61 l 222 1033 l 374 1033 l 374 1111 l 139 1111 z "},"]":{"ha":514,"x_min":0,"x_max":0,"o":"m 375 -139 l 375 1111 l 140 1111 l 140 1033 l 292 1033 l 292 -61 l 139 -61 l 139 -139 z "},"-":{"ha":583,"x_min":0,"x_max":0,"o":"m 83 446 l 500 446 l 500 529 l 83 529 z "},"–":{"ha":972,"x_min":0,"x_max":0,"o":"m 69 447 l 903 447 l 903 528 l 69 528 z "},"—":{"ha":1083,"x_min":0,"x_max":0,"o":"m 56 449 l 1028 449 l 1028 526 l 56 526 z "},"_":{"ha":583,"x_min":0,"x_max":0,"o":"m 83 -110 l 500 -110 l 500 -26 l 83 -26 z "},"‚":{"ha":347,"x_min":0,"x_max":0,"o":"m 126 -236 b 261 36 210 -139 261 -49 b 174 146 261 99 233 146 b 97 69 132 146 97 111 b 188 -7 97 28 125 -14 b 97 -208 182 -74 164 -131 z "},"„":{"ha":579,"x_min":0,"x_max":0,"o":"m 126 -236 b 261 36 210 -139 261 -49 b 174 146 261 99 233 146 b 97 69 132 146 97 111 b 188 -7 97 28 125 -14 b 97 -208 182 -74 164 -131 z m 358 -236 b 493 36 442 -139 493 -49 b 406 146 493 99 465 146 b 329 69 364 146 329 111 b 419 -7 329 28 357 -14 b 329 -208 414 -74 396 -131 z "},"“":{"ha":579,"x_min":0,"x_max":0,"o":"m 221 1021 b 86 749 138 924 86 833 b 174 639 86 686 114 639 b 250 715 215 639 250 674 b 160 792 250 757 222 799 b 250 993 165 858 183 915 z m 453 1021 b 318 749 369 924 318 833 b 406 639 318 686 346 639 b 482 715 447 639 482 674 b 392 792 482 757 454 799 b 482 993 397 858 415 915 z "},"”":{"ha":579,"x_min":0,"x_max":0,"o":"m 126 597 b 261 869 210 694 261 785 b 174 979 261 932 233 979 b 97 903 132 979 97 944 b 188 826 97 861 125 819 b 97 625 182 760 164 703 z m 358 597 b 493 869 442 694 493 785 b 406 979 493 932 465 979 b 329 903 364 979 329 944 b 419 826 329 861 357 819 b 329 625 414 760 396 703 z "},"‘":{"ha":347,"x_min":0,"x_max":0,"o":"m 221 1021 b 86 749 138 924 86 833 b 174 639 86 686 114 639 b 250 715 215 639 250 674 b 160 792 250 757 222 799 b 250 993 165 858 183 915 z "},"’":{"ha":347,"x_min":0,"x_max":0,"o":"m 126 597 b 261 869 210 694 261 785 b 174 979 261 932 233 979 b 97 903 132 979 97 944 b 188 826 97 861 125 819 b 97 625 182 760 164 703 z "},"«":{"ha":689,"x_min":0,"x_max":0,"o":"m 369 83 l 231 389 l 369 694 l 278 694 l 139 389 l 278 83 z m 550 83 l 411 389 l 550 694 l 458 694 l 319 389 l 458 83 z "},"»":{"ha":689,"x_min":0,"x_max":0,"o":"m 139 83 l 231 83 l 369 389 l 231 694 l 139 694 l 278 389 z m 319 83 l 411 83 l 550 389 l 411 694 l 319 694 l 458 389 z "},"‹":{"ha":508,"x_min":0,"x_max":0,"o":"m 369 83 l 231 389 l 369 694 l 278 694 l 139 389 l 278 83 z "},"›":{"ha":508,"x_min":0,"x_max":0,"o":"m 139 83 l 231 83 l 369 389 l 231 694 l 139 694 l 278 389 z "},"\"":{"ha":431,"x_min":0,"x_max":0,"o":"m 111 639 l 167 639 l 181 972 l 97 972 z m 264 639 l 319 639 l 333 972 l 250 972 z "},"'":{"ha":278,"x_min":0,"x_max":0,"o":"m 111 639 l 167 639 l 181 972 l 97 972 z "},"%":{"ha":1108,"x_min":0,"x_max":0,"o":"m 310 553 b 519 767 425 553 519 649 b 310 981 519 885 425 981 b 97 767 192 981 97 885 b 310 553 97 649 192 553 z m 207 0 l 296 0 l 901 972 l 813 972 z m 310 625 b 172 768 232 625 172 681 b 310 908 172 853 232 908 b 444 768 385 908 444 853 b 310 625 444 682 385 625 z m 801 -8 b 1011 206 917 -8 1011 88 b 801 419 1011 324 917 419 b 589 206 683 419 589 324 b 801 -8 589 88 683 -8 z m 801 64 b 664 207 724 64 664 119 b 801 347 664 292 724 347 b 936 207 876 347 936 292 b 801 64 936 121 876 64 z "},"@":{"ha":1483,"x_min":0,"x_max":0,"o":"m 726 -139 b 1063 -29 872 -139 979 -96 l 1019 29 b 726 -61 954 -25 849 -61 b 222 482 433 -61 222 154 b 763 1033 222 818 436 1033 b 1264 513 1089 1033 1264 826 b 1081 238 1264 350 1188 238 b 968 424 986 238 947 301 l 1024 756 l 946 756 l 935 668 b 758 776 897 738 838 776 b 472 447 600 776 472 642 b 692 192 472 299 563 192 b 903 321 779 192 851 236 b 1076 168 908 229 986 168 b 1344 528 1233 168 1344 319 b 763 1111 1344 864 1131 1111 b 139 478 396 1111 139 853 b 726 -139 139 108 386 -139 z m 711 264 b 550 460 611 264 550 339 b 750 704 550 600 639 704 b 911 490 879 704 926 608 b 711 264 894 358 811 264 z "},"&":{"ha":1049,"x_min":0,"x_max":0,"o":"m 408 -14 b 724 142 547 -14 657 49 l 863 0 l 979 0 l 767 217 l 903 486 l 819 486 l 715 267 l 503 485 b 751 765 657 547 751 644 b 499 986 751 889 643 986 b 229 751 336 986 229 886 b 369 510 229 654 296 574 b 125 239 228 463 125 367 b 408 -14 125 82 240 -14 z m 454 536 b 313 756 369 617 313 668 b 499 911 313 846 381 911 b 668 753 601 911 668 844 b 454 536 668 658 576 579 z m 419 61 b 208 239 290 61 208 131 b 415 457 208 340 292 417 l 676 192 b 419 61 626 119 536 61 z "},"|":{"ha":439,"x_min":0,"x_max":0,"o":"m 167 -139 l 272 -139 l 221 489 l 272 1111 l 167 1111 l 218 489 z "},"̈":{"ha":0,"x_min":0,"x_max":0,"o":"m -418 1039 b -347 1110 -379 1039 -347 1071 b -418 1181 -347 1149 -379 1181 b -489 1110 -457 1181 -489 1149 b -418 1039 -489 1071 -457 1039 z m -140 1039 b -69 1110 -101 1039 -69 1071 b -140 1181 -69 1149 -101 1181 b -211 1110 -179 1181 -211 1149 b -140 1039 -211 1071 -179 1039 z "},"̀":{"ha":0,"x_min":0,"x_max":0,"o":"m -89 1021 l -69 1067 l -399 1218 l -432 1133 z "},"́":{"ha":0,"x_min":0,"x_max":0,"o":"m -412 1021 l -69 1133 l -103 1218 l -432 1067 z "},"̂":{"ha":0,"x_min":0,"x_max":0,"o":"m -540 1021 l -317 1128 l -93 1021 l -69 1057 l -317 1218 l -564 1057 z "},"̌":{"ha":0,"x_min":0,"x_max":0,"o":"m -540 1225 l -564 1189 l -317 1028 l -69 1189 l -93 1225 l -317 1118 z "},"̊":{"ha":0,"x_min":0,"x_max":0,"o":"m -192 988 b -54 1126 -115 988 -54 1050 b -192 1264 -54 1203 -115 1264 b -331 1126 -269 1264 -331 1203 b -192 988 -331 1050 -269 988 z m -192 1049 b -267 1126 -233 1049 -267 1078 b -192 1203 -267 1174 -233 1203 b -118 1126 -151 1203 -118 1174 b -192 1049 -118 1078 -151 1049 z "},"̃":{"ha":0,"x_min":0,"x_max":0,"o":"m -196 1038 b -69 1188 -119 1038 -67 1100 l -131 1188 b -190 1099 -131 1126 -150 1099 b -258 1139 -222 1099 -237 1119 b -371 1207 -301 1179 -322 1207 b -497 1057 -447 1207 -500 1144 l -436 1057 b -376 1146 -436 1118 -417 1146 b -308 1106 -344 1146 -329 1125 b -196 1038 -265 1065 -244 1038 z "},"̧":{"ha":0,"x_min":0,"x_max":0,"o":"m -211 -290 b -69 -169 -103 -290 -69 -218 b -210 -58 -69 -114 -110 -54 l -162 0 l -229 0 l -294 -81 l -264 -124 b -204 -115 -243 -118 -224 -115 b -133 -169 -151 -115 -133 -144 b -219 -233 -133 -194 -150 -233 b -294 -222 -239 -233 -264 -231 l -293 -278 b -211 -290 -261 -286 -232 -290 z "},"̵":{"ha":0,"x_min":0,"x_max":0,"o":"m -417 468 l -69 468 l -69 540 l -417 540 z "},"̸":{"ha":0,"x_min":0,"x_max":0,"o":"m -703 -76 l -622 -76 l -69 1014 l -150 1014 z "},"¨":{"ha":558,"x_min":0,"x_max":0,"o":"m 140 1039 b 211 1110 179 1039 211 1071 b 140 1181 211 1149 179 1181 b 69 1110 101 1181 69 1149 b 140 1039 69 1071 101 1039 z m 418 1039 b 489 1110 457 1039 489 1071 b 418 1181 489 1149 457 1181 b 347 1110 379 1181 347 1149 b 418 1039 347 1071 379 1039 z "},"`":{"ha":501,"x_min":0,"x_max":0,"o":"m 413 1021 l 432 1067 l 103 1218 l 69 1133 z "},"´":{"ha":501,"x_min":0,"x_max":0,"o":"m 89 1021 l 432 1133 l 399 1218 l 69 1067 z "},"ˆ":{"ha":633,"x_min":0,"x_max":0,"o":"m 93 1021 l 317 1128 l 540 1021 l 564 1057 l 317 1218 l 69 1057 z "},"˚":{"ha":415,"x_min":0,"x_max":0,"o":"m 208 988 b 346 1126 285 988 346 1050 b 208 1264 346 1203 285 1264 b 69 1126 131 1264 69 1203 b 208 988 69 1050 131 988 z m 208 1049 b 133 1126 167 1049 133 1078 b 208 1203 133 1174 167 1203 b 282 1126 249 1203 282 1174 b 208 1049 282 1078 249 1049 z "},"˜":{"ha":567,"x_min":0,"x_max":0,"o":"m 371 1038 b 497 1188 447 1038 500 1100 l 436 1188 b 376 1099 436 1126 417 1099 b 308 1139 344 1099 329 1119 b 196 1207 265 1179 244 1207 b 69 1057 119 1207 67 1144 l 131 1057 b 190 1146 131 1118 150 1146 b 258 1106 222 1146 238 1125 b 371 1038 301 1065 322 1038 z "},"¸":{"ha":364,"x_min":0,"x_max":0,"o":"m 153 -290 b 294 -169 261 -290 294 -218 b 154 -58 294 -114 254 -54 l 201 0 l 135 0 l 69 -81 l 100 -124 b 160 -115 121 -118 140 -115 b 231 -169 213 -115 231 -144 b 144 -233 231 -194 214 -233 b 69 -222 125 -233 100 -231 l 71 -278 b 153 -290 103 -286 132 -290 z "}}}
